<svg version="1.1" id="Layer_1" xmlns="http://www.w3.org/2000/svg" xmlns:xlink="http://www.w3.org/1999/xlink" x="0px" y="0px"
	 width="100%" viewBox="0 0 480 448" enable-background="new 0 0 480 448" xml:space="preserve">
<path fill="#000000" opacity="1.000000" stroke="none" 
	d="
M282.440674,47.476006 
	C333.342346,71.666595 364.224609,111.291237 373.939117,166.241089 
	C381.695160,210.112915 371.414734,250.525482 345.224915,286.683746 
	C343.050903,289.685211 344.021606,291.237152 346.230774,293.323425 
	C375.302185,320.777374 404.330994,348.276459 433.350281,375.785553 
	C440.029999,382.117645 440.779938,390.580322 435.303833,396.679810 
	C429.773773,402.839386 421.086609,403.191345 414.399261,397.019623 
	C401.053802,384.703217 387.914703,372.162872 374.716736,359.687103 
	C358.733307,344.578308 342.713013,329.507233 326.869476,314.252869 
	C324.078033,311.565277 322.397217,311.639862 319.471100,314.104889 
	C295.808319,334.038788 268.550476,346.494019 237.869888,349.978851 
	C182.631943,356.253052 135.540009,339.000214 98.312843,297.515625 
	C68.060043,263.803009 55.191284,223.430862 59.007107,178.539474 
	C65.050125,107.446075 116.781677,50.629436 185.475967,36.747864 
	C218.698395,30.034357 251.016357,33.483746 282.440674,47.476006 
M137.696930,89.201759 
	C97.558266,122.283577 80.169434,164.653915 89.413719,215.923218 
	C103.763451,295.507599 184.852081,342.019684 261.058960,315.224701 
	C319.060272,294.830902 356.622314,234.459625 345.878357,170.936600 
	C335.981018,112.419243 287.336060,67.006775 228.228729,62.498028 
	C195.107117,59.971478 164.889175,68.524323 137.696930,89.201759 
z"/>
</svg>