<svg version="1.1" id="Layer_1" xmlns="http://www.w3.org/2000/svg" xmlns:xlink="http://www.w3.org/1999/xlink" x="0px" y="0px"
	 width="100%" viewBox="0 0 864 528" enable-background="new 0 0 864 528" xml:space="preserve">
<path fill="#000000" opacity="1.000000" stroke="none" 
	d="
M42.671490,190.999908 
	C42.670784,166.503616 43.418518,142.476334 42.426460,118.521126 
	C41.670311,100.262360 49.515049,87.097580 62.779667,76.284424 
	C77.269493,64.472488 94.105797,56.986202 111.530487,50.511360 
	C129.044006,44.003513 147.030716,39.273327 165.226822,35.412930 
	C183.440613,31.548775 201.891754,28.877769 220.421219,26.897610 
	C246.247971,24.137619 272.145935,22.205864 298.121368,22.324369 
	C314.759338,22.400276 331.407410,22.437677 348.048492,23.649551 
	C363.812256,24.797537 379.577057,25.931084 395.250427,27.871742 
	C421.022644,31.062834 446.596619,35.476536 471.573364,42.780521 
	C498.190308,50.564156 524.322998,59.478565 545.950012,77.827530 
	C558.535278,88.505226 565.651306,101.612022 565.170471,118.752838 
	C564.624023,138.233978 565.069153,157.743103 565.095642,177.240036 
	C565.105835,184.700012 565.121460,184.710876 572.398560,184.710815 
	C654.052551,184.710190 735.706604,184.705658 817.360596,184.704193 
	C819.860107,184.704147 822.364685,184.628159 824.858093,184.757187 
	C830.501465,185.049286 834.077515,188.674942 834.147217,194.371307 
	C834.249268,202.702057 834.168396,211.035034 834.168335,219.367065 
	C834.168091,271.025726 834.172119,322.684357 834.166016,374.343018 
	C834.164917,384.083099 830.968445,387.383453 821.435852,387.382111 
	C641.797119,387.356842 462.158264,387.403961 282.519745,387.192139 
	C256.880310,387.161896 231.339874,384.807953 205.871979,381.560394 
	C180.425461,378.315552 155.201736,374.031769 130.509750,367.095459 
	C107.516167,360.636230 85.075012,352.666779 65.608330,338.244781 
	C56.677505,331.628296 49.062237,323.800476 44.879143,313.148163 
	C43.391220,309.359131 42.641399,305.558929 42.647503,301.482574 
	C42.702393,264.821747 42.674942,228.160812 42.671490,190.999908 
M145.012909,186.679794 
	C115.982895,179.143326 87.869537,169.422791 63.225292,151.459732 
	C61.989441,153.935852 62.404510,155.797821 62.403324,157.587646 
	C62.372883,203.584579 62.485542,249.582001 62.276646,295.578003 
	C62.238827,303.904999 65.222054,310.544281 70.920204,316.074188 
	C83.913467,328.683868 100.252480,335.184021 117.804008,341.508606 
	C117.804008,332.857239 117.802544,324.933502 117.804306,317.009766 
	C117.808235,299.344269 117.751442,281.678406 117.854912,264.013489 
	C117.887932,258.377319 121.471550,254.240646 126.552475,253.347153 
	C130.827332,252.595413 135.292480,255.251602 137.409317,259.674744 
	C138.399506,261.743713 138.201630,263.904510 138.202713,266.052368 
	C138.215729,291.550690 138.291260,317.049591 138.116653,342.546753 
	C138.088715,346.627136 139.269348,348.599060 143.389435,349.288055 
	C148.130661,350.080872 152.721008,351.796936 157.466522,352.538086 
	C164.596436,353.651642 171.529938,356.256104 178.565002,356.059113 
	C179.697235,354.504700 179.221970,353.324341 179.217880,352.187286 
	C179.173004,339.688934 179.005829,327.189392 179.128601,314.692688 
	C179.196884,307.741974 183.756500,302.755005 189.426727,302.804810 
	C194.926880,302.853119 199.676407,307.652954 199.767334,314.224945 
	C199.949356,327.382385 199.826035,340.548889 199.548416,353.705719 
	C199.423859,359.607788 199.722061,360.260071 205.612091,360.835388 
	C213.717728,361.627136 221.829010,362.391388 229.910660,363.388031 
	C235.505676,364.078033 235.831085,363.958954 235.834534,358.095459 
	C235.846970,336.930206 235.839218,315.764923 235.844803,294.599670 
	C235.846436,288.433533 235.736816,282.263580 235.915924,276.102295 
	C236.093933,269.979431 240.766403,265.125122 246.105637,265.161316 
	C251.553497,265.198242 255.991058,270.015656 256.208069,276.148193 
	C256.243408,277.146759 256.205322,278.147827 256.205261,279.147736 
	C256.203796,306.145935 256.279724,333.144623 256.123810,360.141907 
	C256.098724,364.485229 257.467346,365.943665 261.848511,365.938171 
	C271.337189,365.926300 280.825043,366.513153 290.316101,366.731659 
	C297.581360,366.898895 297.587067,366.814697 297.596283,359.765442 
	C297.613495,346.599731 297.557190,333.433380 297.675629,320.268585 
	C297.720184,315.313812 300.905334,311.600433 305.467621,310.583862 
	C310.024506,309.568481 314.292816,311.750275 316.637238,316.131195 
	C317.870483,318.435822 318.089783,320.859497 318.083099,323.387512 
	C318.050049,335.886597 318.027222,348.385803 318.064026,360.884827 
	C318.069733,362.819275 317.513336,364.884003 319.081207,367.004700 
	C328.357361,367.004700 337.830719,367.011810 347.304077,367.002258 
	C353.901001,366.995605 353.964813,366.946960 353.969208,360.291656 
	C353.985870,334.959991 353.972839,309.628296 354.009583,284.296692 
	C354.012970,281.974304 354.013031,279.592285 354.498199,277.342255 
	C355.602875,272.218933 360.030121,269.114166 365.152374,269.540192 
	C369.949188,269.939148 373.689911,273.666656 374.187195,278.672333 
	C374.351318,280.324310 374.275909,282.002014 374.276428,283.667969 
	C374.284454,309.499573 374.392548,335.332031 374.193909,361.162079 
	C374.157867,365.848267 375.697662,367.226593 380.225830,367.095703 
	C389.883881,366.816528 399.563721,366.765717 409.218048,367.099884 
	C414.159058,367.270935 415.970764,365.903046 415.822571,360.691711 
	C415.467377,348.202698 415.627594,335.695923 415.747192,323.197906 
	C415.805817,317.073792 419.992004,312.793610 425.542572,312.720001 
	C430.953033,312.648193 435.453400,316.982025 435.936829,322.836304 
	C436.087280,324.658173 436.007111,326.500275 436.007721,328.333130 
	C436.012146,341.121582 436.010071,353.910065 436.010071,367.021912 
	C447.286713,367.021912 458.242889,367.006287 469.198975,367.032440 
	C472.070557,367.039307 472.188080,365.346771 472.178802,363.052124 
	C472.074127,337.221222 472.053864,311.389984 472.039276,285.558807 
	C472.037964,283.231262 472.016205,280.868988 472.380066,278.582703 
	C473.329803,272.614777 477.393097,269.240204 483.010437,269.491150 
	C488.317444,269.728241 492.267456,273.895905 492.392242,279.888275 
	C492.572540,288.545990 492.497406,297.209412 492.496307,305.870422 
	C492.493927,324.701752 492.506958,343.533234 492.418060,362.364197 
	C492.402679,365.622650 493.311615,367.170898 496.950043,367.096283 
	C506.945312,366.891266 516.949829,366.881073 526.945374,367.072174 
	C531.051270,367.150696 532.021484,365.328888 531.982422,361.632080 
	C531.853699,349.467773 531.972595,337.301025 531.969482,325.135193 
	C531.968567,321.523743 532.503235,318.043182 535.369080,315.563477 
	C538.457764,312.891022 542.066528,311.728546 546.016724,313.583160 
	C550.173950,315.534973 552.254944,318.928772 552.260559,323.544373 
	C552.276123,336.376801 552.367615,349.210083 552.239685,362.041107 
	C552.203796,365.634186 553.355713,367.157196 557.110352,367.090393 
	C566.606750,366.921356 576.111145,366.885590 585.605835,367.093628 
	C589.660950,367.182526 590.930420,365.522522 590.663879,361.739746 
	C590.453552,358.755188 590.636902,355.743195 590.636963,352.743408 
	C590.637512,328.578339 590.596313,304.413177 590.659607,280.248260 
	C590.678711,272.955505 595.882874,268.478302 602.567566,269.714752 
	C607.748657,270.673035 610.969543,275.575806 610.978943,282.819824 
	C611.013123,309.151306 610.987610,335.482910 611.021851,361.814423 
	C611.023987,363.411530 610.377380,365.159637 612.112000,367.000488 
	C622.545837,367.000488 633.361450,366.808258 644.164795,367.089264 
	C648.898987,367.212372 650.156067,365.397919 650.067139,360.939392 
	C649.831238,349.111633 649.976562,337.275940 650.005554,325.443481 
	C650.015198,321.515259 650.579102,317.682037 653.927063,315.082031 
	C657.006287,312.690735 660.480408,311.816711 664.229736,313.566437 
	C668.662781,315.635284 670.512451,319.259369 670.494263,324.031128 
	C670.447388,336.357330 670.598206,348.687317 670.321716,361.007996 
	C670.221497,365.477753 671.416565,367.286591 676.173523,367.086365 
	C684.325317,366.743195 692.511963,366.740417 700.664062,367.077911 
	C705.475342,367.277100 706.993652,365.685699 706.946533,360.854889 
	C706.733826,339.025085 706.855591,317.192017 706.870300,295.360107 
	C706.873901,290.027496 706.675049,284.678497 707.019226,279.366211 
	C707.525024,271.559387 715.399902,267.078033 721.767944,270.756104 
	C725.990540,273.194977 727.265625,277.008636 727.250061,281.727509 
	C727.162720,308.225464 727.288086,334.724243 727.144470,361.221710 
	C727.121582,365.450562 728.219727,367.183533 732.754333,367.077911 
	C744.247314,366.810364 755.754272,366.822479 767.248047,367.071503 
	C771.686462,367.167664 773.030151,365.600098 772.950928,361.274567 
	C772.728149,349.112885 772.826477,336.943939 772.909912,324.778625 
	C772.961243,317.295593 777.109619,312.613922 783.332825,312.723297 
	C789.337585,312.828827 793.245239,317.464050 793.280334,324.680634 
	C793.326538,334.179749 793.282227,343.679291 793.290649,353.178650 
	C793.302856,367.006226 793.308105,367.006256 807.242920,367.010834 
	C813.838684,367.013000 813.878418,366.991516 813.878540,360.300537 
	C813.879395,311.137085 813.875000,261.973663 813.864563,212.810226 
	C813.862915,205.065903 813.845154,205.065231 806.273010,205.064758 
	C737.944153,205.060440 669.612976,205.414200 601.286926,204.972183 
	C485.651886,204.224167 369.993988,207.362350 254.383957,203.074417 
	C240.934814,202.575592 227.511719,200.902115 214.127335,199.338409 
	C207.866257,198.606949 203.988419,193.185318 204.881546,187.808578 
	C205.781448,182.391113 211.224014,178.625809 217.090408,179.052841 
	C227.709320,179.825851 238.242554,181.358215 248.875854,182.120590 
	C275.970551,184.063156 303.091156,184.494583 330.208618,183.928253 
	C366.018188,183.180374 401.491547,179.184967 436.640228,171.987183 
	C460.542358,167.092468 483.902252,160.692383 506.118103,150.577103 
	C519.046692,144.690475 531.618774,138.025345 540.368896,126.228668 
	C546.348206,118.167496 546.308472,109.974449 540.685730,101.657257 
	C538.714111,98.740738 536.389893,96.165466 533.707642,93.866371 
	C522.145813,83.955864 508.637695,77.467369 494.599731,72.122192 
	C462.694000,59.973648 429.554565,53.185497 395.719635,48.874943 
	C373.384003,46.029396 351.012604,44.167179 328.575989,43.441921 
	C287.585083,42.116890 246.659042,43.747696 206.008560,49.468376 
	C174.827393,53.856453 144.038696,60.219738 114.480492,71.419762 
	C98.545723,77.457672 82.972023,84.365410 70.754402,96.802238 
	C60.153831,107.593002 60.069923,118.630959 70.161293,129.845749 
	C71.382858,131.203308 72.730255,132.460175 74.107040,133.663330 
	C80.169136,138.960953 87.041901,143.033264 94.129608,146.767532 
	C112.663498,156.532318 132.569046,162.480988 152.723389,167.696747 
	C159.522141,169.456192 163.300369,174.397430 161.932449,180.264328 
	C160.558914,186.155334 155.100128,189.027298 148.246658,187.467651 
	C147.434448,187.282822 146.618515,187.114334 145.012909,186.679794 
M544.595581,152.945145 
	C542.049072,150.543671 540.705200,153.478821 539.342468,154.457794 
	C524.342346,165.233810 507.771667,172.765274 490.365540,178.627457 
	C484.911499,180.464310 479.440735,182.251511 473.977631,184.061432 
	C496.261566,184.628143 518.363525,184.595306 540.465088,184.663620 
	C543.772400,184.673843 544.800659,183.180008 544.765137,180.098282 
	C544.663574,171.288849 544.717834,162.477631 544.595581,152.945145 
z"/>
<path fill="#000000" opacity="1.000000" stroke="none" 
	d="
M279.998840,488.034119 
	C279.986145,493.354309 280.116272,498.185883 279.927612,503.005035 
	C279.718567,508.345947 275.854462,513.745483 271.553406,515.008362 
	C267.421356,516.221680 264.136292,514.265259 260.946289,512.009460 
	C246.681793,501.922485 232.410461,491.845123 218.138046,481.769287 
	C215.829102,480.139282 213.463089,478.587616 211.190643,476.908783 
	C202.507721,470.493835 202.586563,462.528839 211.515030,456.290649 
	C225.288773,446.667114 239.139023,437.153046 252.967499,427.607971 
	C256.114868,425.435547 259.231964,423.205505 262.491180,421.211609 
	C270.648560,416.221130 279.547668,420.862091 279.953186,430.471375 
	C280.254639,437.614868 280.141968,444.783997 279.970154,451.935883 
	C279.881531,455.624390 281.317108,456.939331 284.966003,456.863037 
	C293.283600,456.689056 301.607758,456.749725 309.928314,456.821991 
	C316.635742,456.880249 321.177277,461.054108 321.125122,466.921844 
	C321.072845,472.801117 316.549133,477.047028 309.893860,477.151855 
	C302.240387,477.272461 294.583344,477.149078 286.927979,477.169006 
	C279.992523,477.187042 279.993439,477.209137 280.009521,484.045166 
	C280.012268,485.210114 280.004120,486.375061 279.998840,488.034119 
M259.713806,470.487274 
	C259.713806,463.319519 259.713806,456.151764 259.713806,447.596649 
	C250.066483,454.711578 241.118744,459.884033 232.534622,467.050934 
	C241.809296,473.507874 250.230072,479.370361 259.706268,485.967621 
	C259.706268,480.068176 259.706268,475.773865 259.713806,470.487274 
z"/>
<path fill="#000000" opacity="1.000000" stroke="none" 
	d="
M773.374023,427.601746 
	C786.728271,437.000824 799.862122,446.090332 812.818298,455.426300 
	C822.351257,462.295624 822.334106,469.858002 812.822144,476.556091 
	C796.772644,487.857758 780.591736,498.972687 764.485718,510.194397 
	C760.126892,513.231445 755.496521,514.807312 750.482910,512.198303 
	C745.547180,509.629883 744.597412,504.998383 744.741699,499.854584 
	C744.900269,494.199951 744.804260,488.537811 744.796692,482.878967 
	C744.787720,476.136047 744.777466,476.125092 737.801758,476.085663 
	C730.979187,476.047089 724.145203,476.265778 717.337341,475.936462 
	C711.884888,475.672729 708.001892,472.133850 707.257996,467.123138 
	C706.561035,462.428070 709.045471,459.192810 712.895935,456.889679 
	C714.665527,455.831207 716.677002,455.727570 718.697693,455.725067 
	C725.521423,455.716644 732.354065,455.454895 739.165833,455.726898 
	C743.626892,455.905090 745.012085,454.165527 744.853577,449.894562 
	C744.606934,443.246765 744.884521,436.581299 744.800476,429.925079 
	C744.737244,424.916565 746.879333,421.268799 751.205017,418.926514 
	C755.340210,416.687317 759.264526,417.615234 762.924866,420.149872 
	C766.343079,422.516693 769.695862,424.978058 773.374023,427.601746 
M765.219910,478.997955 
	C765.414795,480.409576 764.773743,482.029327 766.843506,483.631134 
	C774.977661,477.948547 783.271606,472.154358 792.244934,465.885529 
	C782.986267,459.391602 774.647278,453.542786 765.211792,446.924896 
	C765.211792,458.268402 765.211792,468.190247 765.219910,478.997955 
z"/>
<path fill="#000000" opacity="1.000000" stroke="none" 
	d="
M433.024841,456.103058 
	C440.333588,456.069672 447.146820,456.013336 453.960083,456.015747 
	C455.782501,456.016388 457.628540,456.043365 459.422913,456.321564 
	C465.462585,457.257965 469.111755,461.121857 469.149750,466.447754 
	C469.188263,471.844116 465.168030,476.607880 459.052490,476.808044 
	C446.438568,477.220856 433.796417,477.198181 421.178528,476.869812 
	C415.626953,476.725342 411.224396,471.827759 410.988129,466.922455 
	C410.750671,461.992432 414.785706,457.402557 420.601685,456.625854 
	C424.530823,456.101135 428.550293,456.252960 433.024841,456.103058 
z"/>
<path fill="#000000" opacity="1.000000" stroke="none" 
	d="
M542.546936,470.026855 
	C540.439697,474.394684 537.173523,476.347778 532.795593,476.420166 
	C521.646362,476.604462 510.496063,476.866882 499.346588,476.848419 
	C490.234344,476.833344 484.948242,472.766876 485.070984,466.339142 
	C485.195374,459.825226 490.471588,456.018402 499.543579,455.971252 
	C510.201782,455.915833 520.861816,455.784241 531.518127,455.919983 
	C540.054016,456.028717 544.084290,461.148743 542.546936,470.026855 
z"/>
<path fill="#000000" opacity="1.000000" stroke="none" 
	d="
M578.026855,476.281158 
	C574.539062,476.250061 571.526672,476.420074 568.556763,476.139709 
	C563.383972,475.651215 559.342407,471.511139 559.077087,466.776672 
	C558.822144,462.225555 562.112488,457.829468 566.940308,456.479675 
	C568.360718,456.082520 569.885193,455.902039 571.363708,455.892700 
	C582.675415,455.821259 593.987915,455.748779 605.299377,455.815308 
	C612.819275,455.859558 617.302856,459.893280 617.229492,466.251038 
	C617.157532,472.490082 612.876648,476.173279 605.470337,476.226410 
	C596.487671,476.290833 587.504395,476.265808 578.026855,476.281158 
z"/>
<path fill="#000000" opacity="1.000000" stroke="none" 
	d="
M652.027405,455.745941 
	C661.511902,455.741302 670.501526,455.699524 679.490784,455.742767 
	C686.699951,455.777466 691.230591,459.683258 691.276978,465.772156 
	C691.324158,471.964661 686.937500,476.073059 679.799377,476.141296 
	C667.981018,476.254303 656.160095,476.251556 644.341553,476.149811 
	C638.050964,476.095673 633.184387,471.754242 633.049011,466.433563 
	C632.904968,460.772552 637.689392,456.098999 644.042175,455.797577 
	C646.534119,455.679321 649.035400,455.757019 652.027405,455.745941 
z"/>
<path fill="#000000" opacity="1.000000" stroke="none" 
	d="
M341.121826,458.876648 
	C343.526489,456.985657 345.977753,456.765411 348.518036,456.764221 
	C360.159241,456.758698 371.800476,456.685150 383.441589,456.706116 
	C390.762512,456.719330 395.229584,460.584961 395.161346,466.689148 
	C395.094574,472.660919 390.357849,477.023102 383.490784,477.087189 
	C371.850525,477.195801 360.208344,477.169769 348.567474,477.104919 
	C343.650024,477.077515 339.984131,474.876221 337.872437,470.297577 
	C335.772858,465.745209 337.712982,462.285156 341.121826,458.876648 
z"/>
<path fill="#000000" opacity="1.000000" stroke="none" 
	d="
M294.012970,163.272003 
	C266.160065,162.331879 239.071915,159.574631 212.792236,151.354340 
	C202.100754,148.010040 191.864746,143.732635 182.601913,137.266693 
	C164.074722,124.333771 163.542984,104.009804 181.652863,90.427223 
	C193.571838,81.487869 207.438309,76.762154 221.619125,72.877388 
	C235.765091,69.002167 250.252060,66.593857 264.776184,65.276985 
	C285.821106,63.368885 306.969147,62.821407 328.131256,64.195221 
	C339.594574,64.939400 351.017761,66.062675 362.306122,67.989655 
	C385.182159,71.894707 407.845276,76.810463 426.889099,91.279404 
	C434.573395,97.117729 439.953735,104.560402 439.273651,115.002571 
	C438.614166,125.128250 432.435089,131.791840 424.862518,137.256256 
	C410.525330,147.602020 393.924164,152.521332 376.905731,156.182083 
	C349.746735,162.024078 322.231201,163.881180 294.012970,163.272003 
M189.280212,112.766182 
	C189.237991,117.563446 192.937637,119.650047 196.186295,121.824699 
	C203.867310,126.966370 212.535889,130.001282 221.305527,132.614212 
	C243.612015,139.260483 266.589478,141.896576 289.721497,142.603897 
	C322.233673,143.598083 354.567291,141.753891 386.059753,132.636810 
	C395.302887,129.960907 404.449493,126.891731 412.489685,121.272552 
	C420.826508,115.446037 420.796631,111.305756 412.254669,105.524612 
	C407.676208,102.425941 402.752625,100.030571 397.593597,98.094055 
	C370.915009,88.079895 342.999359,85.291847 314.842590,84.289772 
	C298.208923,83.697807 281.586731,84.383217 264.999786,86.126282 
	C245.237656,88.203018 225.823013,91.724709 207.384552,99.334824 
	C200.529190,102.164246 193.379425,104.948387 189.280212,112.766182 
z"/>
<path fill="#000000" opacity="1.000000" stroke="none" 
	d="
M581.000000,223.875305 
	C594.495178,223.872131 607.490540,223.836533 620.485535,223.878357 
	C627.955505,223.902405 632.748108,227.950577 632.733521,234.066696 
	C632.718994,240.159012 627.870728,244.234512 620.466125,244.236725 
	C573.483521,244.250763 526.500854,244.248581 479.518250,244.227417 
	C472.141663,244.224091 467.798431,240.523743 467.681519,234.307907 
	C467.560089,227.852234 471.980011,223.874664 479.537323,223.868988 
	C513.191528,223.843735 546.845764,223.868591 581.000000,223.875305 
z"/>
<path fill="#000000" opacity="1.000000" stroke="none" 
	d="
M435.860718,241.157318 
	C432.057434,235.650085 431.928040,231.606445 435.161804,227.693680 
	C438.278320,223.922729 444.954437,222.507980 449.871582,224.576553 
	C454.335297,226.454391 456.723816,230.476639 456.156158,235.386108 
	C455.231140,243.386551 446.996613,246.040771 439.031891,243.358459 
	C437.971527,243.001358 437.097839,242.089981 435.860718,241.157318 
z"/>
</svg>