<svg version="1.1" id="Layer_1" xmlns="http://www.w3.org/2000/svg" xmlns:xlink="http://www.w3.org/1999/xlink" x="0px" y="0px"
	 width="100%" viewBox="0 0 336 384" enable-background="new 0 0 336 384" xml:space="preserve">
<path fill="#000000" opacity="1.000000" stroke="none" 
	d="
M321.220642,369.357452 
	C311.027954,369.626434 311.252441,369.591858 309.512482,358.293274 
	C305.114563,329.734680 293.776154,304.339996 273.936798,283.109955 
	C250.478012,258.006805 221.441467,243.212524 187.410721,239.607758 
	C151.161148,235.767944 117.908966,244.883972 88.801712,267.186005 
	C60.492252,288.876740 43.403973,317.681396 36.509701,352.570129 
	C35.642479,356.958679 35.543697,361.497711 35.058525,365.963745 
	C34.805725,368.290833 34.200909,370.171356 31.151697,369.969543 
	C25.505371,369.595825 19.848146,369.274323 14.191938,369.200378 
	C10.156550,369.147614 9.189329,367.424591 9.577599,363.558899 
	C14.706029,312.498962 38.024441,272.058289 79.836647,242.233887 
	C89.950188,235.019974 100.867760,229.429352 112.301193,224.725845 
	C113.825661,224.098724 115.295692,223.339325 117.577446,222.273941 
	C84.853729,197.201508 70.391388,164.705017 76.946213,124.184555 
	C81.128952,98.327820 94.848320,77.912933 115.999153,62.486458 
	C157.160950,32.464878 217.319901,41.295918 248.677933,81.568954 
	C280.870300,122.913544 276.893982,186.108978 227.363113,221.858841 
	C227.675934,223.542419 229.254013,223.513702 230.390244,223.964859 
	C273.732666,241.174576 304.854584,271.105652 323.392456,313.874878 
	C330.181000,329.536926 333.847870,346.085571 335.417145,363.115173 
	C335.847321,367.783569 334.216888,369.522247 329.683502,369.233917 
	C327.031891,369.065308 324.354675,369.298981 321.220642,369.357452 
M192.072083,210.630325 
	C225.568863,200.826950 249.446167,167.364883 242.823425,127.963394 
	C237.515457,96.384003 208.011276,70.987053 173.928909,70.048973 
	C128.993149,68.812164 93.384666,110.125443 101.629311,154.148560 
	C109.345642,195.350662 150.009796,222.115784 192.072083,210.630325 
z"/>
</svg>