<svg version="1.1" id="Layer_1" xmlns="http://www.w3.org/2000/svg" xmlns:xlink="http://www.w3.org/1999/xlink" x="0px" y="0px"
	 width="100%" viewBox="0 0 704 768" enable-background="new 0 0 704 768" xml:space="preserve">
<path fill="#000000" opacity="1.000000" stroke="none" 
	d="
M509.353943,422.304443 
	C501.718903,433.428284 494.364807,444.312134 486.859436,455.090698 
	C485.443237,457.124512 484.744415,458.704285 486.634644,460.786163 
	C496.447418,471.593903 506.205475,482.451385 516.023499,493.336823 
	C520.382202,491.654907 522.777161,488.055511 526.037292,485.595886 
	C533.781250,479.753387 542.523376,482.477753 545.304260,491.705048 
	C546.705994,496.356140 544.331421,499.856354 541.221741,502.725464 
	C528.628174,514.345154 515.935181,525.857971 503.207672,537.331360 
	C473.796173,563.844727 444.339386,590.307861 414.907959,616.799133 
	C374.850586,652.854797 334.837524,688.959961 294.727142,724.956604 
	C279.124481,738.959106 261.054596,748.732727 240.841827,754.108215 
	C220.848145,759.425537 200.716202,759.945557 180.216476,755.734741 
	C139.235901,747.316956 109.517342,724.028198 89.238281,688.226318 
	C77.685936,667.831055 73.794418,645.416992 73.880852,622.051086 
	C74.120682,557.220520 74.026802,492.388550 74.021858,427.557129 
	C74.013168,313.560547 74.059143,199.563812 73.867470,85.567505 
	C73.831894,64.409859 80.138824,46.334347 96.707520,32.636787 
	C108.032074,23.274641 120.964302,17.695238 135.934174,17.694611 
	C182.766159,17.692648 229.598267,17.632513 276.430054,17.730940 
	C291.637848,17.762903 305.017365,23.194645 316.407684,33.110790 
	C319.453918,35.762783 321.664032,35.960545 325.428925,34.785236 
	C338.285736,30.771677 351.494873,30.415997 364.141968,35.223015 
	C390.782532,45.348824 417.211914,56.031994 443.698090,66.561623 
	C462.185974,73.911507 480.838928,80.901649 499.018311,88.955116 
	C514.172058,95.668259 524.775208,107.333931 531.010498,122.903191 
	C534.072205,130.548141 535.015137,138.573349 536.146362,146.576782 
	C536.471436,148.876160 537.617676,150.049011 539.339539,151.242859 
	C557.503418,163.837082 575.685364,176.406601 593.748474,189.144287 
	C611.294922,201.517670 619.540222,219.188675 620.950012,240.036911 
	C621.638428,250.216965 618.817688,260.226135 614.139709,269.285980 
	C612.140869,273.157135 613.521301,275.009125 615.702209,277.414459 
	C627.540955,290.471924 639.350464,303.555908 651.196716,316.606628 
	C659.296326,325.529785 665.238342,335.822418 666.984253,347.666412 
	C670.655701,372.573059 663.521973,393.774933 644.091858,410.713379 
	C621.644775,430.281921 599.665161,450.387543 577.529968,470.312592 
	C570.323608,476.799408 562.049377,475.600922 557.808228,467.288422 
	C555.521667,462.806885 556.880371,457.784332 561.604553,453.524475 
	C568.136353,447.634705 574.699768,441.780029 581.651672,435.550018 
	C566.271973,418.533600 551.164856,401.818756 535.489624,384.475403 
	C526.517578,397.480438 518.050049,409.754211 509.353943,422.304443 
M246.499878,260.626190 
	C267.824738,260.619690 289.149963,260.550598 310.474182,260.665497 
	C314.235260,260.685730 315.831329,259.658020 315.813538,255.593597 
	C315.681671,225.438782 315.682953,195.282959 315.795837,165.128021 
	C315.809875,161.379776 314.521393,160.267609 310.866821,160.271759 
	C241.226196,160.350876 171.585419,160.350647 101.944801,160.268478 
	C98.220512,160.264069 97.028938,161.563416 97.041359,165.208420 
	C97.143463,195.196838 97.186882,225.186142 97.026657,255.173996 
	C97.002205,259.749817 98.764755,260.755402 102.939545,260.703094 
	C118.097984,260.513123 133.265015,260.852478 148.418640,260.523712 
	C153.348740,260.416748 157.466690,264.799103 158.991089,269.558197 
	C160.152313,273.183502 157.323761,278.778717 153.499405,280.965027 
	C150.865952,282.470520 148.095337,283.281219 144.954208,283.255310 
	C131.126984,283.141205 117.293381,283.417450 103.472687,283.096252 
	C98.381042,282.977905 96.941467,284.589661 96.978592,289.614838 
	C97.189087,318.102570 97.067154,346.592743 97.081413,375.082062 
	C97.084793,381.831726 97.125412,381.867676 103.634171,381.865906 
	C172.275131,381.847260 240.916245,381.755219 309.556793,381.908478 
	C314.856384,381.920288 315.887787,380.136841 315.851990,375.297699 
	C315.639771,346.643280 315.618683,317.985901 315.821167,289.331543 
	C315.855103,284.529999 314.547028,283.056610 309.686432,283.101532 
	C285.697449,283.323181 261.705261,283.193390 237.714203,283.190918 
	C223.386215,283.189453 209.057755,283.265228 194.730469,283.165833 
	C187.657288,283.116791 182.617783,278.031158 182.671158,271.373260 
	C182.729843,264.050812 186.465790,260.623444 194.518875,260.615509 
	C211.512527,260.598755 228.506195,260.620056 246.499878,260.626190 
M296.499390,527.916016 
	C234.841339,527.910400 173.183273,527.906860 111.525223,527.892456 
	C108.860382,527.891846 106.189522,527.887939 103.531929,527.720032 
	C97.142120,527.316101 97.116203,527.276245 97.117142,533.702637 
	C97.121727,565.031555 97.154381,596.360535 97.152405,627.689453 
	C97.151596,640.424133 99.311432,652.706055 104.077171,664.576233 
	C119.725632,703.552307 148.647064,726.270203 189.471008,734.215088 
	C208.786240,737.974060 227.719070,734.898315 245.781235,728.056641 
	C266.131989,720.348083 282.690857,707.129211 295.546875,689.438843 
	C306.729156,674.051575 314.500427,656.691895 315.246613,638.015137 
	C316.649200,602.908569 315.657379,567.707642 315.773682,532.546326 
	C315.785522,528.961426 314.282593,527.849487 310.996216,527.926208 
	C306.499695,528.031250 301.998322,527.929138 296.499390,527.916016 
M351.140747,183.416977 
	C347.262085,182.781403 344.205292,179.442017 339.832733,179.830658 
	C339.630951,180.600494 339.325684,181.223053 339.324860,181.846008 
	C339.281006,215.511795 339.274780,249.177612 339.216461,282.843384 
	C339.212311,285.240356 340.240753,286.166870 342.487946,287.000275 
	C351.195160,290.229492 359.809906,293.717529 368.393829,297.266937 
	C377.188812,300.903595 379.676605,309.425903 374.020721,316.051788 
	C370.327759,320.378021 364.906036,321.024506 358.538055,318.375580 
	C352.495972,315.862183 346.546600,312.996918 340.322998,311.500854 
	C338.932007,313.250824 339.259369,314.805725 339.258362,316.266022 
	C339.235931,348.432220 339.298676,380.598694 339.161499,412.764343 
	C339.143768,416.920074 341.153595,418.556885 344.610443,419.855957 
	C352.373444,422.773315 360.025330,425.985718 367.728821,429.062103 
	C376.350342,432.505127 384.940796,436.032288 393.632233,439.289520 
	C395.716980,440.070862 398.341736,441.483704 399.761536,437.681824 
	C403.009766,428.983917 406.500824,420.375336 409.974518,411.763275 
	C414.995239,399.315796 420.145935,386.920532 425.129700,374.458435 
	C428.496277,366.040161 431.670959,357.545135 434.902283,349.160309 
	C434.307648,348.759430 434.058105,348.522339 433.761261,348.401062 
	C423.774475,344.321320 413.735504,340.364349 403.812988,336.134186 
	C398.987335,334.076874 396.159760,328.391205 397.201782,323.891113 
	C398.364166,318.871246 403.949554,313.471802 408.451599,314.051636 
	C412.142548,314.526947 415.691956,316.290100 419.239441,317.650909 
	C426.189545,320.316895 433.104492,323.075775 440.012909,325.848633 
	C442.460480,326.831024 444.269745,326.315338 445.262848,323.823730 
	C448.760620,315.048248 452.191467,306.246063 455.684784,297.468781 
	C460.527252,285.301666 465.419159,273.154236 470.259491,260.986298 
	C473.604401,252.577637 476.897766,244.148499 480.285065,235.548447 
	C478.325287,234.538986 476.916229,233.661850 475.399109,233.054871 
	C457.983978,226.087570 440.542328,219.186569 423.127747,212.217972 
	C399.370667,202.711380 375.630890,193.161621 351.140747,183.416977 
M287.500000,405.244568 
	C226.358887,405.220520 165.217773,405.196564 104.076668,405.172241 
	C100.368301,405.170776 96.916618,404.608276 96.969727,410.545105 
	C97.234924,440.197021 97.154045,469.852570 97.073822,499.506470 
	C97.063721,503.241028 98.043076,504.792084 102.153229,504.785370 
	C171.624008,504.671448 241.095047,504.677429 310.565918,504.759155 
	C314.360504,504.763611 315.835205,503.792450 315.814819,499.708191 
	C315.665924,469.888123 315.662842,440.066559 315.827332,410.246674 
	C315.850464,406.055542 314.156403,405.141235 310.489685,405.218933 
	C303.162933,405.374237 295.830231,405.251709 287.500000,405.244568 
M97.115463,123.491913 
	C97.116325,125.990242 97.104736,128.488647 97.120445,130.986893 
	C97.162460,137.671524 97.167114,137.690125 103.651062,137.690491 
	C172.275299,137.694382 240.899612,137.651779 309.523621,137.780243 
	C314.159149,137.788925 315.938507,136.743851 315.850128,131.736694 
	C315.553192,114.919029 315.552704,98.090630 315.771698,81.270676 
	C316.083374,57.334274 295.911957,40.599648 274.770813,40.459553 
	C229.300919,40.158253 183.826920,40.216602 138.356079,40.435982 
	C116.512619,40.541367 96.554352,57.966663 97.079567,81.520966 
	C97.383957,95.172241 97.122589,108.836136 97.115463,123.491913 
M488.919403,212.470383 
	C490.759003,211.665802 490.675293,209.755707 491.267334,208.270020 
	C497.156891,193.490128 502.954712,178.673553 508.874512,163.905853 
	C516.752808,144.252609 511.233246,121.250580 491.341278,111.051636 
	C475.986023,103.178734 459.472076,97.875587 443.455688,91.473061 
	C417.421234,81.065819 391.355133,70.736320 365.379425,60.184353 
	C357.591187,57.020580 349.790039,54.485985 341.262634,55.072674 
	C338.964294,55.230804 336.592834,55.151527 334.492310,57.533348 
	C341.396332,75.237213 338.779877,94.011940 339.164490,112.538139 
	C339.403046,124.027985 339.593018,135.543625 339.070160,147.014206 
	C338.802032,152.896057 341.328674,155.051880 346.335449,156.862396 
	C358.476562,161.252792 370.424622,166.180908 382.421844,170.964157 
	C395.034698,175.992889 407.613373,181.107452 420.208649,186.180344 
	C432.632874,191.184296 444.984375,196.380661 457.507996,201.122284 
	C467.726044,204.990997 477.535522,209.961258 488.919403,212.470383 
M544.514587,183.069275 
	C539.957642,179.893814 535.400696,176.718369 530.760193,173.484650 
	C528.455261,176.575516 527.836121,179.505447 526.745361,182.264709 
	C516.940491,207.066849 507.174103,231.887848 496.929352,256.508972 
	C495.179962,260.713226 496.768066,262.060028 499.540009,263.960236 
	C511.871826,272.413971 524.155640,280.937714 536.460999,289.429993 
	C544.610657,295.054199 552.767517,300.667999 561.225098,306.495911 
	C571.563232,291.592285 581.736755,277.239899 591.534119,262.635132 
	C595.052917,257.389679 597.157837,251.261337 597.560303,244.919235 
	C598.604797,228.461426 592.027527,215.617447 578.414490,206.310516 
	C567.300293,198.712021 556.245300,191.026962 544.514587,183.069275 
M580.652710,319.100769 
	C570.953613,333.189575 561.321594,347.325500 551.496216,361.325745 
	C549.623962,363.993591 549.558044,365.684204 551.858032,368.171753 
	C561.443604,378.539093 570.772461,389.143188 580.254028,399.607391 
	C586.348328,406.333313 592.544678,412.966797 598.953064,419.921509 
	C609.667480,410.327911 619.933350,401.178619 630.137939,391.961456 
	C632.105225,390.184509 633.908936,388.208771 635.657898,386.210754 
	C648.568115,371.462524 647.761108,347.310699 635.325623,333.575836 
	C628.752075,326.315399 622.125427,319.102966 615.562439,311.833099 
	C610.132324,305.818268 604.760376,299.750916 598.789734,293.065338 
	C592.587280,302.000488 586.847168,310.269653 580.652710,319.100769 
M461.163483,346.487854 
	C458.083252,354.350311 455.049530,362.231506 451.893341,370.063354 
	C450.990997,372.302551 451.424957,373.804962 453.404388,375.173157 
	C466.898254,384.499939 480.354279,393.881409 493.842377,403.259094 
	C494.441772,402.585632 494.804688,402.253815 495.078094,401.859863 
	C512.042236,377.417725 528.982361,352.958954 545.979858,328.540070 
	C547.839905,325.867767 546.779236,324.635681 544.426086,323.027252 
	C529.041504,312.511902 513.806274,301.778290 498.430695,291.249664 
	C494.560059,288.599243 490.957733,285.414978 486.118500,283.524567 
	C477.790039,304.529510 469.614380,325.149048 461.163483,346.487854 
M385.443146,473.135742 
	C386.791779,469.805664 388.140381,466.475586 389.551758,462.990509 
	C387.050598,461.741974 385.043610,460.556793 382.904388,459.702606 
	C370.748138,454.848633 358.508728,450.199066 346.403046,445.223480 
	C339.475037,442.375977 339.250763,442.352905 339.247345,449.869568 
	C339.227203,493.971588 339.212158,538.073608 339.195496,582.175598 
	C339.194885,583.768860 339.195435,585.362122 339.195435,586.955383 
	C339.542358,587.031433 339.889252,587.107483 340.236176,587.183594 
	C355.185883,549.396301 370.135620,511.609039 385.443146,473.135742 
M416.370331,458.720245 
	C413.534119,465.617310 410.763062,472.542175 407.836945,479.400909 
	C406.128815,483.404633 406.060394,486.417877 410.594635,488.871796 
	C414.942963,491.225067 418.869110,494.394287 422.849030,497.380524 
	C425.769775,499.572052 427.640228,499.766846 430.036591,496.259735 
	C445.880676,473.071503 461.982239,450.059204 477.946289,426.952576 
	C478.939178,425.515411 480.218750,424.049866 479.908478,421.675568 
	C467.431091,413.066559 454.807678,404.356750 441.661987,395.286621 
	C433.055206,416.810242 424.825104,437.391846 416.370331,458.720245 
M438.799408,564.200317 
	C457.787354,547.048767 476.723663,529.839355 495.820923,512.810364 
	C498.565094,510.363434 499.102936,508.765656 496.326111,506.061768 
	C493.240753,503.057465 490.594086,499.607666 487.674103,496.427399 
	C482.224091,490.491394 476.714630,484.610016 470.855621,478.303101 
	C468.952515,480.896484 467.440857,482.851532 466.039276,484.882568 
	C453.682861,502.788422 441.281006,520.663574 429.050507,538.655151 
	C426.094177,543.003967 420.548615,547.119202 421.019745,551.889954 
	C421.512146,556.876160 427.818054,560.045044 431.062042,564.423767 
	C433.547729,567.778870 435.803802,567.359314 438.799408,564.200317 
M366.253906,588.533203 
	C370.686096,582.096680 375.109711,575.654236 379.552246,569.224792 
	C390.331787,553.624329 401.126556,538.034302 411.893646,522.425293 
	C412.823608,521.077148 414.085846,519.593079 412.032471,518.145996 
	C407.220642,514.754822 402.378784,511.406342 396.862213,507.561920 
	C385.513672,536.041992 374.528534,563.610046 363.543427,591.178040 
	C363.775421,591.278992 364.007446,591.379883 364.239471,591.480835 
	C364.784454,590.667969 365.329437,589.855164 366.253906,588.533203 
M416.208618,583.515503 
	C413.831940,578.879150 410.105927,575.547302 405.771057,571.993652 
	C392.985321,590.555786 380.545624,608.615540 368.105957,626.675293 
	C372.125397,624.096619 375.558655,621.034607 378.961639,617.939270 
	C391.340851,606.679138 403.709930,595.407837 416.208618,583.515503 
z"/>
<path fill="#000000" opacity="1.000000" stroke="none" 
	d="
M214.528198,677.585083 
	C199.197723,681.579407 185.760468,677.610107 173.609146,669.150757 
	C161.994476,661.065002 155.551346,649.770325 152.205307,635.701721 
	C146.850266,613.186218 162.116867,587.441528 180.356522,578.943054 
	C190.731262,574.109070 201.398041,572.122375 212.265823,574.039490 
	C229.305603,577.045410 242.579391,586.262634 250.709763,601.935059 
	C264.817413,629.129700 253.139236,659.196533 229.378311,672.393555 
	C224.893631,674.884460 220.284866,677.306213 214.528198,677.585083 
M220.247375,650.803406 
	C230.669876,644.171936 236.623474,628.655090 231.894424,616.401123 
	C227.102142,603.983215 213.110535,593.942139 200.256454,596.605469 
	C183.183319,600.142883 174.338394,610.559875 174.540298,626.635925 
	C174.836090,650.186157 199.135651,663.003723 220.247375,650.803406 
z"/>
</svg>