<svg version="1.1" id="Layer_1" xmlns="http://www.w3.org/2000/svg" xmlns:xlink="http://www.w3.org/1999/xlink" x="0px" y="0px"
	 width="100%" viewBox="0 0 960 960" enable-background="new 0 0 960 960" xml:space="preserve">
<path fill="#000000" opacity="1.000000" stroke="none" 
	d="
M441.468658,961.000000 
	C438.544159,954.218445 439.626068,947.248962 439.652313,940.280396 
	C439.822479,895.114807 439.780151,849.948425 439.802765,804.782288 
	C439.803436,803.449280 439.691895,802.114258 439.736633,800.783691 
	C439.921387,795.291443 438.087219,791.195374 433.242798,787.886292 
	C425.625671,782.683289 421.087158,775.224731 420.586670,765.761719 
	C420.405151,762.328674 418.783417,761.175659 415.476654,761.281921 
	C410.149048,761.453247 404.811554,761.308960 399.478302,761.316895 
	C374.084595,761.354614 349.495300,756.930603 325.455811,748.739136 
	C296.957611,739.028381 271.642456,724.022217 248.872650,704.469360 
	C242.949249,699.382874 236.784653,694.568176 230.601547,689.796204 
	C225.877701,686.150452 220.494446,684.333496 214.413437,684.398987 
	C194.091507,684.617920 173.772324,685.417419 153.442917,684.516113 
	C146.627579,684.213928 141.584595,681.519226 138.829926,675.201599 
	C136.185669,669.137146 138.156891,663.856567 142.041855,659.030273 
	C143.172729,657.625366 144.369965,656.273926 145.927353,654.437439 
	C139.602676,650.645020 133.502548,647.142395 127.557022,643.394470 
	C105.476944,629.475891 87.348625,611.596619 72.318092,590.183044 
	C59.965736,572.585022 51.045738,553.501648 45.055088,533.098694 
	C40.006992,515.905762 38.123116,498.124664 38.476173,480.123932 
	C38.691582,469.141541 38.729885,458.093414 40.938797,447.365631 
	C44.932232,427.971008 50.620144,409.021454 60.245052,391.557190 
	C70.487976,372.971558 83.070557,356.134125 98.600197,341.547272 
	C103.753181,336.707092 109.406609,334.061737 116.239914,336.827698 
	C124.703316,340.253479 130.252151,351.745392 121.042526,361.023895 
	C112.128639,370.004425 103.361534,379.038025 96.186897,389.537262 
	C86.988983,402.997345 80.438179,417.623535 75.126541,433.014740 
	C67.920021,453.896606 67.021210,475.420227 68.446434,496.955688 
	C69.886421,518.714172 76.651123,539.328064 87.079254,558.536438 
	C98.041626,578.728821 112.709976,595.782471 130.917084,609.944153 
	C140.808029,617.637390 151.641113,623.535950 162.659668,629.235779 
	C165.525558,630.718262 167.876938,630.991028 170.895813,628.235107 
	C182.202179,617.913574 195.340103,610.477783 210.153900,606.433594 
	C221.000122,603.472656 232.068420,601.592285 243.399475,601.656372 
	C256.732239,601.731812 270.065948,601.688904 283.399078,601.646240 
	C289.640015,601.626282 291.709503,599.479858 291.641724,593.150879 
	C291.497559,579.684387 288.142792,566.850464 284.301208,554.041870 
	C280.256439,540.555786 274.460632,527.801331 269.209229,514.802551 
	C265.365051,505.286987 273.887390,491.319672 283.854034,487.530548 
	C296.698151,482.647430 305.371216,490.031281 314.486359,496.373840 
	C333.060028,509.298004 348.441376,525.664551 362.932312,542.836670 
	C375.552155,557.791565 387.269653,573.480591 398.668365,589.391785 
	C402.668091,594.974976 403.775146,600.776184 399.508972,606.855896 
	C396.136871,611.661499 391.522491,613.807495 385.780487,613.329773 
	C379.895081,612.840149 376.433044,608.703064 373.249939,604.347717 
	C358.138275,583.670837 342.867340,563.119812 324.839172,544.822815 
	C319.501587,539.405640 313.927490,534.221619 307.587372,529.470764 
	C309.435181,535.489929 311.385773,541.479980 313.104919,547.535645 
	C315.295044,555.250366 316.954224,563.091492 318.674164,570.921631 
	C320.184967,577.799805 320.016357,584.712158 321.197357,591.552246 
	C322.516571,599.193298 320.197784,606.703125 316.164703,613.258118 
	C310.584625,622.327515 302.880249,628.474426 291.863617,630.458923 
	C271.671234,634.096191 251.328323,630.809082 231.144318,632.438782 
	C213.666153,633.849976 198.947159,641.459778 186.803177,654.247192 
	C188.422943,656.422791 190.414398,655.562622 192.064362,655.584900 
	C200.395935,655.697388 208.739456,655.896912 217.060730,655.584839 
	C231.035706,655.060730 242.367035,661.074402 252.683212,669.544617 
	C267.007294,681.305542 280.975769,693.489014 296.863861,703.223022 
	C314.041718,713.747192 332.493652,721.287476 351.902130,726.215454 
	C361.396912,728.626343 371.253174,729.796997 381.051239,731.090088 
	C392.258453,732.569214 403.305023,731.354614 414.389984,732.058289 
	C418.018707,732.288696 420.062408,731.387390 420.900177,727.186707 
	C422.384918,719.741943 428.674774,716.562622 438.052307,717.632690 
	C443.943848,718.304993 449.155762,723.953735 449.265533,730.267151 
	C449.433472,739.930969 449.443481,749.601440 449.290131,759.265381 
	C449.216064,763.931396 451.130432,765.940552 455.801117,765.920471 
	C476.633911,765.831055 497.467438,765.807861 518.300171,765.890930 
	C523.128113,765.910217 524.787354,763.520813 524.754456,759.084167 
	C524.687744,750.084717 524.709106,741.084290 524.743408,732.084534 
	C524.771729,724.665894 529.437500,718.590393 535.774719,717.611694 
	C544.817139,716.215210 551.733582,719.793091 553.706177,727.782959 
	C554.637085,731.553711 556.492249,731.961670 559.611450,732.084412 
	C573.445374,732.628845 587.338013,732.348389 600.953369,730.386719 
	C619.568665,727.704590 637.594543,722.361206 654.959534,714.808594 
	C680.128174,703.862061 701.019653,686.794250 721.619568,669.255432 
	C731.771729,660.611816 742.978943,655.064331 756.719727,655.566650 
	C764.542297,655.852539 772.384216,655.649353 780.216858,655.588440 
	C782.301331,655.572205 784.584595,655.987183 786.500732,653.655396 
	C780.680969,646.587280 773.144226,642.001343 764.949402,638.384155 
	C755.462036,634.196411 745.669128,631.842163 735.106628,632.186035 
	C721.288147,632.635986 707.434204,632.604431 693.613159,632.191040 
	C680.221313,631.790466 668.039673,627.895508 659.882202,616.311462 
	C654.322754,608.416809 651.641113,599.713806 653.071777,589.742493 
	C654.099609,582.579163 654.109985,575.276245 655.636597,568.135742 
	C658.289917,555.724792 661.503540,543.482666 665.961975,531.586548 
	C666.184937,530.991821 666.386780,530.389221 666.230713,529.448975 
	C660.013062,533.743225 654.784180,539.110840 649.574646,544.465637 
	C628.544617,566.082031 611.075928,590.552368 593.328003,614.801392 
	C578.081543,635.632690 558.727783,651.030396 534.531189,660.621765 
	C508.560699,670.916199 482.162445,671.848633 455.329590,665.864807 
	C444.695068,663.493286 434.578125,659.207825 424.934753,654.058716 
	C418.688568,650.723450 415.059113,642.402588 417.001007,636.792542 
	C419.349304,630.008240 426.118042,625.075195 432.443665,625.764587 
	C436.638031,626.221741 440.046021,628.823853 443.815643,630.435730 
	C453.105927,634.408142 462.538116,637.602783 472.682861,638.914368 
	C478.089325,639.613403 483.393036,641.142639 488.915131,640.680542 
	C521.000061,637.995300 548.312134,625.973511 567.797974,599.399536 
	C586.470825,573.934265 605.053040,548.399780 626.737122,525.363892 
	C639.300720,512.016907 653.036011,499.961151 668.614014,490.115631 
	C682.632202,481.255951 696.286011,487.637665 702.553101,498.523499 
	C707.948425,507.894928 704.596985,516.527527 700.563171,525.273804 
	C694.266418,538.926819 689.470154,553.075867 686.083618,567.786865 
	C684.089172,576.450806 682.921143,585.062134 682.947205,593.885132 
	C682.964905,599.900574 684.698120,601.633179 690.697937,601.652100 
	C703.531067,601.692627 716.364441,601.635254 729.197632,601.668701 
	C757.730896,601.743164 783.236145,610.077698 804.677734,629.440002 
	C806.348022,630.948242 807.622681,631.514832 810.260742,630.346436 
	C849.200439,613.099182 876.947266,584.892212 894.655090,546.243469 
	C906.746216,519.853638 910.282593,492.081787 907.525391,463.775482 
	C904.246460,430.112946 890.668152,400.310425 868.307068,374.764679 
	C861.954651,367.507538 854.938782,360.877960 847.526855,354.655121 
	C841.381592,349.495667 840.588013,339.589478 845.434509,333.590485 
	C850.219727,327.667267 859.482849,326.745667 865.987488,331.999237 
	C892.296326,353.247864 912.018738,379.407074 924.394714,410.992096 
	C928.952271,422.623444 932.605774,434.574921 934.900269,446.793823 
	C937.317322,459.664917 937.929993,472.781036 937.538940,485.943176 
	C937.247253,495.760620 937.081177,505.606354 935.085327,515.203430 
	C932.580261,527.249268 929.487244,539.205322 924.883118,550.657959 
	C909.048401,590.046692 883.663269,621.568359 847.410950,644.027893 
	C841.408081,647.746887 835.268188,651.244812 829.241882,654.815125 
	C829.523621,656.867188 831.139099,657.694641 832.186340,658.914246 
	C836.316162,663.724182 837.694336,669.174622 835.370911,675.094788 
	C832.866943,681.474731 827.736084,684.567139 821.000854,684.846375 
	C816.341980,685.039612 811.669373,684.909668 807.002869,684.909912 
	C792.336304,684.910645 777.646851,685.403137 763.010803,684.733459 
	C752.501709,684.252563 744.453125,688.340271 736.951660,694.867188 
	C714.579285,714.332764 691.074890,732.108826 663.257324,743.283936 
	C650.531494,748.396301 637.630127,752.758911 624.137146,755.714600 
	C602.939941,760.357910 581.605835,761.964050 560.025391,761.271851 
	C556.035278,761.143860 554.312805,761.974792 553.734131,766.525391 
	C552.476990,776.410278 546.975830,784.144287 538.793030,789.716064 
	C535.915833,791.675232 535.146423,793.865723 535.152344,797.137024 
	C535.241516,846.302551 535.222229,895.468323 535.226135,944.634033 
	C535.226562,949.921265 535.794922,955.283752 533.103760,960.618469 
	C524.645752,961.000000 516.291565,961.000000 507.329651,960.637085 
	C505.037048,956.549927 504.753479,952.636719 504.759766,948.586182 
	C504.835724,899.649780 504.770355,850.712891 504.946045,801.776978 
	C504.963318,796.975098 503.146606,795.794067 498.803040,795.854553 
	C491.493286,795.956421 484.176300,795.643250 476.864136,795.440674 
	C469.268219,795.230286 469.128876,795.294067 469.130707,803.075745 
	C469.142212,851.679321 469.156189,900.282898 469.230164,948.886414 
	C469.236603,953.101624 469.029449,957.197510 467.000000,961.000000 
	C458.645782,961.000000 450.291534,961.000000 441.468658,961.000000 
z"/>
<path fill="#000000" opacity="1.000000" stroke="none" 
	d="
M274.402161,180.251251 
	C269.303467,191.242386 265.871887,202.482849 262.843689,213.732101 
	C259.469910,226.265152 256.805206,239.080475 256.398926,252.181885 
	C256.213043,258.175751 255.005890,264.067169 255.005310,270.099518 
	C255.004715,276.292450 255.825378,282.376801 256.378143,288.504272 
	C256.744476,292.565094 260.061707,292.449829 262.661316,292.750031 
	C265.649933,293.095184 268.535156,293.435181 271.405792,294.489288 
	C279.550507,297.480103 283.408264,304.718536 281.122406,313.187653 
	C279.227234,320.209381 271.219482,324.026733 263.279205,322.861664 
	C249.210236,320.797424 235.176910,319.171295 220.751160,319.913513 
	C201.085846,320.925293 182.623810,325.799622 164.481735,332.814362 
	C158.701416,335.049438 149.604141,329.850769 147.701431,323.642029 
	C144.533951,313.306091 149.316040,306.741608 159.733154,302.890656 
	C176.038818,296.862823 192.615433,292.053162 210.125778,290.849823 
	C215.197052,290.501312 220.267715,289.454163 225.728363,289.600891 
	C225.728363,282.167053 225.413071,275.217712 225.798111,268.307373 
	C226.469284,256.262207 227.701874,244.280243 229.364548,232.296265 
	C231.280151,218.489487 234.435669,205.097305 238.541290,191.842636 
	C244.882080,171.371857 254.106720,152.246216 265.299133,134.038040 
	C276.936707,115.105629 290.935699,98.025230 307.061615,82.794067 
	C328.581055,62.468666 352.601227,45.751541 379.770630,33.667835 
	C392.901123,27.827991 406.259033,22.545347 420.195831,19.272820 
	C427.955292,17.450808 435.901886,15.941017 443.730896,14.332623 
	C462.492340,10.478260 481.349731,10.385105 500.258759,10.781182 
	C509.816620,10.981383 519.297241,12.601129 528.761902,14.271015 
	C535.544739,15.467750 542.227539,16.966181 548.957458,18.346512 
	C564.894165,21.615215 579.996826,27.201828 594.683899,33.907970 
	C627.228455,48.767921 655.637268,69.448532 679.726379,95.921944 
	C697.206299,115.131966 711.922913,136.302307 722.746460,159.956680 
	C730.356384,176.587830 737.091064,193.538376 740.680969,211.671463 
	C743.238464,224.589478 745.319702,237.461823 746.800903,250.574799 
	C748.137085,262.404388 747.936279,274.098480 748.174744,285.859802 
	C748.231812,288.674835 749.315552,289.568481 752.036072,289.710297 
	C769.808105,290.636597 787.339355,293.143585 804.289185,298.751007 
	C809.901367,300.607635 814.970764,302.964203 817.944824,309.129303 
	C820.325989,314.065338 818.844177,319.637573 815.084839,324.158691 
	C811.670349,328.264954 805.036987,329.666290 800.211304,328.308716 
	C786.824951,324.542938 773.429443,321.270844 759.416321,319.898010 
	C748.134521,318.792755 737.160950,320.297729 726.073792,320.544708 
	C718.909851,320.704315 711.839661,323.397400 704.643188,324.188690 
	C695.492004,325.194916 688.529236,319.816071 687.687195,311.937103 
	C686.820923,303.831146 692.497742,296.422577 701.201050,295.001434 
	C705.294495,294.333008 709.164062,292.707275 713.410461,292.648499 
	C716.231995,292.609436 717.208435,290.766632 717.812439,287.763977 
	C720.692444,273.447632 718.749573,259.134735 717.305786,245.022400 
	C716.131531,233.544159 713.397644,222.121231 710.323669,210.827057 
	C704.796570,190.519760 696.459717,171.574310 685.937561,153.439560 
	C677.814331,139.439194 668.158203,126.622353 657.211304,114.763626 
	C648.637817,105.476082 639.520874,96.661728 629.446594,89.068748 
	C609.222229,73.825539 587.415161,61.358322 563.278564,53.180759 
	C552.033081,49.370750 540.688477,45.631424 529.012573,43.962963 
	C509.616272,41.191277 490.081390,38.291100 470.395538,41.150719 
	C464.128235,42.061131 457.818390,42.142776 451.539001,43.062447 
	C438.269043,45.005943 425.493896,48.549183 412.781891,52.674110 
	C388.699158,60.488716 366.829346,72.539810 346.746124,87.663139 
	C325.638367,103.557999 307.866333,122.758759 293.464325,145.038177 
	C286.253021,156.193802 279.878937,167.750381 274.402161,180.251251 
z"/>
<path fill="#000000" opacity="1.000000" stroke="none" 
	d="
M376.852875,320.852051 
	C358.558746,339.731873 345.133118,361.135223 337.252747,385.943176 
	C335.161652,392.525970 327.929443,397.390320 322.058014,396.664062 
	C315.305634,395.828857 308.555298,389.563629 308.010468,382.954346 
	C307.549377,377.360504 310.522675,372.416260 312.318878,367.340942 
	C314.282928,361.791321 317.044067,356.510712 319.647675,351.206055 
	C320.921722,348.610260 320.482544,347.059753 318.008820,345.471954 
	C315.250519,343.701508 312.415741,341.962708 310.540558,339.004089 
	C303.782227,328.340759 311.813293,317.690613 322.828796,316.277344 
	C325.452820,315.940674 329.051056,317.121429 331.512543,319.254883 
	C335.324097,322.558502 338.081177,321.526184 340.884827,317.744171 
	C353.002930,301.397369 368.231598,288.335114 385.034637,277.101196 
	C397.427643,268.815704 410.899200,262.649567 424.894287,257.429779 
	C446.343170,249.429977 468.588623,246.044785 491.207214,246.872467 
	C510.492767,247.578217 529.531006,250.474731 548.071228,257.111115 
	C581.902954,269.221069 610.000061,288.874908 632.463135,316.785797 
	C633.395203,317.943939 634.650696,318.879456 635.415710,320.127014 
	C637.353027,323.286102 639.371582,322.602661 642.028748,320.949982 
	C647.865234,317.319824 653.093994,312.448914 660.265625,311.364349 
	C667.980591,310.197693 674.460754,314.199310 676.934692,321.598175 
	C678.887634,327.438965 675.827332,334.723053 669.984253,338.245331 
	C665.442993,340.982819 660.958191,343.814972 656.392822,346.511078 
	C654.182556,347.816345 653.477722,349.387268 654.713745,351.758881 
	C658.975525,359.935608 662.165283,368.539581 665.041809,377.288208 
	C666.979309,383.180969 664.997375,389.515015 659.567505,393.394226 
	C653.563171,397.683838 647.365417,397.688446 642.163208,393.280060 
	C639.609436,391.115997 637.655090,388.609039 636.575684,385.236023 
	C628.436768,359.802887 614.805908,337.666199 595.457336,319.284546 
	C576.357605,301.139313 553.898682,288.520264 528.442505,281.771454 
	C518.752197,279.202454 508.645233,278.147797 498.664520,276.714813 
	C486.974213,275.036407 475.610413,276.406738 464.489380,277.831024 
	C449.186218,279.790833 434.165497,284.242737 420.039642,291.130249 
	C404.234863,298.836365 389.967377,308.657532 376.852875,320.852051 
z"/>
</svg>